<svg xmlns="http://www.w3.org/2000/svg" xml:space="preserve" viewBox="0 0 1450 1829"><path fill="#FFF" d="M1148 161c4 12-3 20-13 25l-40 20-16 9c-1 0-14 5-8 7 13 8 55 10 46 34-6 15-20 8-31 5l-37-14c-10-3-25-6-32-13-8-9-2-21 7-26l40-23c5-3 26-9 28-15-14-9-49-7-42-31v-2c5-14 20-8 30-4l34 12c11 4 26 7 34 16z"/><path d="M1379 1440c2 83 9 167-1 249-2 18-5 38-12 54-6 16-13 37-27 47-31 31-72 3-94-24-24-31-32-70-38-108-7-42-9-85-9-127v-257c0-40-2-86-28-119-28-34-64-38-105-26-18 5-37 12-57 13-23 2-47 2-70 3-21 0-41-1-62-3-9-1-19-3-29-3s-21 5-32 6c-41 5-84 6-126 6-20 0-40 1-59-4-9-1-18-3-26-7-11-6-13-1-23 4-18 10-32 4-49-1-9-3-16 4-24 6-9 2-21 2-30-3-11-5-12-3-22 2-9 4-19 6-29 6-9 0-17-5-24-10-11-7-12-15-25-11-40 11-82-8-96-48-7-19-7-41-3-61 2-10 6-15-3-22l-27-24c-56-56-88-130-87-210 0-10 0-21 2-30 3-10 1-16-7-23-16-16-32-31-46-49-16-22-57-65-40-95 8-15 33-22 48-23l64-7 63-2h28c5 0 18-16 22-20a516 516 0 0 1 278-114l28-2c9-1 16-14 21-20 24-32 54-59 83-87 8-8 17-15 26-21 16-8 34-17 50-5s23 33 26 52l17 125c1 9-1 24 7 27 8 4 15 9 22 15 16 12 28 27 41 42 23 29 40 73 46 110l5 29c10-1 20 1 29 3a258 258 0 0 1 152 94c24 32 42 70 50 109l9 64 1 30c0 9 17 15 25 20 68 44 121 108 138 188a1484 1484 0 0 1 29 262zm-37 186c2-13 1-27 1-40 0-6 0-44-4-43-8 15-30 21-46 20-10 0-20 0-31-3-8-2-21-12-30-12 5 12 4 26 4 39l4 45c1 12 1 23 11 29 13 8 28 8 43 8 12 0 25-2 37-8 6-3 11-4 11-11v-24zm-10-186c10-4 8-7 7-17l-1-25c0-8 1-17-2-25-7 0-14 5-21 6-14 4-30 5-45 3-8-1-14-5-21-9-5-3-10-11-15-12 3 14 3 30 3 45l-1 28c0 8 3 7 8 12 20 18 66 3 88-6zm-14-163c9-9 9-11 8-23l-4-30c-1-4-1-9-3-12-3-3-11 3-14 4-25 5-48 6-73 7 1 10-2 56 6 58 18 5 35 11 53 6 10-2 19-5 27-10zm-33-159c6-5-26-48-35-47-1 23-23 40-40 52-11 7-15 8-8 19l10 17c1 3 12 0 14 0 22-3 45-24 59-41zm-110-91c3-8 8-13-1-18l-20-12c-10-5-7-12-6-22l1-24c0-11 3-18-9-20-14-1-33-5-44-13-15-14 0-22 12-28l18-15c9-8 12-9 8-21-4-9-4-9-12-6l-29 11c-9 3-32 10-36-4-3-13 15-29 21-39 5-10 18-31 10-40-3-4-6-9-11-10-6 8-12 13-19 19a98 98 0 0 1-39 27c-21 7-15-13-9-25 8-16 10-34 11-51l1-10-14-5c-8-3-17-8-25-7-3 25-10 54-28 73-5 5-19 21-25 8-6-12 1-28-1-41-15 32-24 65-44 94-3 6 5 8 8 12 7 6 13 14 19 21 10 15 16 31 21 48 2 9 6 41-11 23l-34-37c-4-3-34-29-38-23-8 13-23 22-30 35 18 12 33 22 44 41 3 6 12 23 3 27-8 4-17-5-22-10-14-13-28-22-47-28-11-4-14 0-23 8-4 3-18 10-19 15 8 4 18 9 23 16s1 13-7 14l-60 6c-35 5-80 18-88 59-3 15-1 37 20 34 19-3 18-34 36-38 13-3 20 24 26 32 14 18 31-1 43-11 5-6 12-15 19-17 10-2 11 7 14 13 8 20 30 18 47 11 8-3 16-7 23-13 5-3 15-16 21-8 3 8 4 16 3 24 10 5 25 4 36 4 41 3 85 4 125-6 16-4 29-13 46-15l29-1c6 1 22 6 27 1 10-12 18-24 25-37l11-21zM892 626c5-3 8-4 7-10l-7-19c-4-8-12 1-17 4l-21 10c-10 6-26 13-38 11-17-4 0-27 4-34 8-13 17-24 27-35 4-5 13-10 8-16-3-5-9-10-13-14-11-10-24-18-37-24-7-4-11-3-11-11l-2-26-12-96c-1-16-6-88-35-62-29 28-57 58-85 88l-41 43c-7 6-13 4-22 4-9-1-27-1-35 4 20 16 36 42 41 67 5 19 1 64-28 45-23-14-38-42-56-61l-29-32c-8-8-25 1-35 5 3 8 11 16 16 23l14 23c10 20 12 40 13 61 0 8 0 51-19 37-16-9-25-31-36-45-13-16-27-31-42-45-6-5-13-14-20-18-5-2-22 12-26 15-2 1-18 12-16 13l23 18c16 13 33 29 42 47 7 14 16 40 4 53-13 13-32-15-40-24-11-14-27-26-42-36l-24-17c-12-8-10 3-22 3l-31-2-34 1-65 3c-9 2-49 0-48 14 1 8 8 13 12 20a596 596 0 0 0 59 73l18 21c5 5 17 13 15 21a232 232 0 0 0 15 155l5 10c4 6 8 4 15 3 22-2 45-3 68-3 8 1 18 0 25 5s-6 14-9 17c-17 14-37 22-54 35 5 6 29 32 37 25 13-12 28-22 43-30 7-3 16-8 24-6 7 4 4 16 3 22-1 10-5 20-9 30l-5 12c-2 7 3 6 9 8a440 440 0 0 0 438-109c55-55 100-129 101-209l-43 2c-10-1-39 0-42-13-4-11 15-23 22-27 14-10 28-18 43-27zm-326 479c11-15 17-29 9-47-3-8-5-12-14-11l-31 4a657 657 0 0 1-110-4l-24-5c-11-2-13 0-23 7-7 4-13 11-21 13-12 3-11-8-10-16 0-7 4-20-2-23-4-2-16-10-20-7-8 9-9 35-8 47 2 16 11 30 28 35 16 5 36 1 51-7 4-2 10-6 13 1s9 15 15 20c16 12 27 2 38-11 5-7 30-28 30-6-1 8-1 13 5 18 7 7 18-2 25-5 5-3 12-43 26-20 3 7-3 17 4 21 9 7 13 4 19-4z"/><path fill="#FFF" d="M1343 1586c0 13 1 27-1 40v24c0 7-5 8-11 11-12 6-25 8-37 8-15 0-30 0-43-8-10-6-10-17-11-29l-4-45c0-13 1-27-4-39 9 0 22 10 30 12 11 3 21 3 31 3 16 1 38-5 46-20-3 5 0 0 0 0 4-1 4 37 4 43z"/><path d="M1339 1543s-3 5 0 0z"/><path fill="#FFF" d="M1339 1423c1 10 3 13-7 17-22 9-68 24-88 6-5-5-8-4-8-12l1-28c0-15 0-31-3-45 5 1 10 9 15 12 7 4 13 8 21 9 15 2 31 1 45-3 7-1 14-6 21-6 3 8 2 17 2 25l1 25zm-13-169c1 12 1 14-8 23-8 5-17 8-27 10-18 5-35-1-53-6-8-2-5-48-6-58 25-1 48-2 73-7 3-1 11-7 14-4 2 3 2 8 3 12l4 30zm-76-183c9-1 41 42 35 47-14 17-37 38-59 41-2 0-13 3-14 0l-10-17c-7-11-3-12 8-19 17-12 39-29 40-52z"/><path d="M1050 136v2l-1 1h1c-7 24 28 22 42 31-2 6-23 12-28 15l-40 23c-9 5-15 17-7 26 7 7 22 10 32 13l37 14c11 3 25 10 31-5 9-24-33-26-46-34-6-2 7-7 8-7l16-9 40-20c10-5 17-13 13-25-8-9-23-12-34-16l-34-12c-10-4-25-10-30 4v-1zm216 1c29 70 4 157-60 199l-40 23c-18 9-41 12-60 13a178 178 0 0 1-132-48c-7-7-8-13-18-8-11 5-47 7-32-15 5-7 13-11 18-18-1-7-7-16-9-23-7-20-10-41-11-63 2-22 6-40 13-61 8-23 24-41 40-59 26-32 72-47 112-51 20-1 39-1 58 4 20 5 37 14 55 25 31 19 53 48 66 82zM1153 35c0 4 2-1 0 0z"/><path fill="#FFF" d="M1174 1009c9 5 4 10 1 18l-11 21c-7 13-15 25-25 37-5 5-21 0-27-1l-29 1c-17 2-30 11-46 15-40 10-84 9-125 6-11 0-26 1-36-4 1-8 0-16-3-24-6-8-16 5-21 8-7 6-15 10-23 13-17 7-39 9-47-11-3-6-4-15-14-13-7 2-14 11-19 17-12 10-29 29-43 11-6-8-13-35-26-32-18 4-17 35-36 38-21 3-23-19-20-34 8-41 53-54 88-59l60-6c8-1 12-7 7-14s-15-12-23-16c1-5 15-12 19-15 9-8 12-12 23-8 19 6 33 15 47 28 5 5 14 14 22 10 9-4 0-21-3-27-11-19-26-29-44-41 7-13 22-22 30-35 4-6 34 20 38 23l34 37c17 18 13-14 11-23-5-17-11-33-21-48-6-7-12-15-19-21-3-4-11-6-8-12 20-29 29-62 44-94 2 13-5 29 1 41 6 13 20-3 25-8 18-19 25-48 28-73 8-1 17 4 25 7l14 5-1 10c-1 17-3 35-11 51-6 12-12 32 9 25 16-5 28-16 39-27 7-6 13-11 19-19 5 1 8 6 11 10 8 9-5 30-10 40-6 10-24 26-21 39 4 14 27 7 36 4l29-11c8-3 8-3 12 6 4 12 1 13-8 21l-18 15c-12 6-27 14-12 28 11 8 30 12 44 13 12 2 9 9 9 20l-1 24c-1 10-4 17 6 22l20 12z"/><path d="M1050 137v1-1z"/><path fill="#FFF" d="m540 704 4-1c-16 5-64 26-25 37l24 3 7 16 2 14c1 7 0 15-3 21-2 6-8 11-14 14-5 2-12-1-16 3-9 13 7 14 15 12 13-4 22-11 28-23 5-8 2-18 1-27v-7c6 1 12 8 17 10 6 3 12 3 17 3 12 0 23-6 33-12 6-4 19-15 6-20-6-2-20 12-24 16-22 13-44-9-55-25-6-8 5-20 8-28 6-11-16-8-20-7l-5 1zm195-320 5-4c-17 12-32 26-48 40-5 4-19 9-7 14l27 8c11 3 22 8 33 10 9 1 4-14 3-19l-5-36c0-2 0-20-2-18l-6 5zm164 232c1 6-2 7-7 10-15 9-29 17-43 27-7 4-26 16-22 27 3 13 32 12 42 13l43-2c-1 80-46 154-101 209a440 440 0 0 1-439 109c-5-2-10-1-8-8l5-12c4-10 8-20 9-30 1-6 4-18-3-22-8-2-17 3-24 6-15 8-30 18-43 30-8 7-32-19-37-25 17-13 37-21 54-35 3-3 16-12 9-17s-17-4-25-5c-23 0-46 1-68 3-7 1-11 3-15-3l-5-10-11-28c-14-42-14-85-4-127 2-8-10-16-15-21l-18-21a793 793 0 0 1-59-73c-4-7-11-12-12-20-1-14 39-12 48-14l65-3 34-1 31 2c12 0 10-11 22-3l24 17c15 10 31 22 42 36 8 9 27 37 40 24 12-13 3-39-4-53-9-18-26-34-42-47l-23-18c-2-1 14-12 16-13 4-3 21-17 26-15 7 4 14 13 20 18 15 14 29 29 42 45 11 14 20 36 36 45 19 14 19-29 19-37a137 137 0 0 0-27-84c-5-7-13-15-16-23 10-4 27-13 35-5l29 32c18 19 33 47 56 61 29 19 33-26 28-45-5-25-21-51-41-67 8-5 26-5 35-4 9 0 15 2 22-4l41-43c28-30 56-60 85-88 29-26 34 46 35 62l12 96 2 26c0 8 4 7 11 11 13 6 26 14 37 24 4 4 10 9 13 14 5 6-4 11-8 16-10 11-19 22-27 35-4 7-21 30-4 34 12 2 28-5 38-11l21-10c5-3 13-12 17-4l7 19zm-136-24c1-7 6-11 0-18-4-6-12-7-18-5-7 2-7 11-9 17-3 7-8 13-13 18a74 74 0 0 1-43 23c-7 1-18 2-23-4-5-4-12-7-18-4-14 6-9 22 2 28 31 20 68 6 95-15 11-10 24-24 27-40zM417 772c1-7 5-10 2-16-3-8-11-11-18-9 3-1-4 0 0 0-9 1-10 12-12 19-3 7-8 13-13 18-11 11-29 22-44 22-8 0-18 2-24-6-3-4-11-6-16-2-13 9-7 23 5 30 31 15 66 6 91-16 12-10 27-25 29-40zM223 638c3-8 9-18 8-27-23-1-46 4-69 3 0 9 21 24 27 30l14 15 9 11c5-10 8-21 11-32z"/><path d="M763 574c6 7 1 11 0 18-3 16-16 30-27 40-27 21-64 35-95 15-11-6-16-22-2-28 6-3 13 0 18 4 5 6 16 5 23 4 16-1 32-11 43-23 5-5 10-11 13-18 2-6 2-15 9-17 6-2 14-1 18 5zm-15-141c1 5 6 20-3 19-11-2-22-7-33-10l-27-8c-12-5 2-10 7-14 16-14 31-28 48-40l1-1a723 723 0 0 0 7 54z"/><path d="M735 384a80 80 0 0 1 6-5l-1 1-5 4z"/><path fill="#FFF" d="M575 1058c8 18 2 32-9 47-6 8-10 11-19 4-7-4-1-14-4-21-14-23-21 17-26 20-7 3-18 12-25 5-6-5-6-10-5-18 0-22-25-1-30 6-11 13-22 23-38 11-6-5-12-13-15-20s-9-3-13-1c-15 8-35 12-51 7-17-5-26-19-28-35-1-12 0-38 8-47 4-3 16 5 20 7 6 3 2 16 2 23-1 8-2 19 10 16 8-2 14-9 21-13 10-7 12-9 23-7l24 5a657 657 0 0 0 141 0c9-1 11 3 14 11z"/><path d="M636 747c-6-2-20 12-24 16-22 13-44-9-55-25-6-8 5-20 8-28 6-11-16-8-20-7h-1c-16 5-64 26-25 37l24 3 7 16 2 14c1 7 0 15-3 21-2 6-8 11-14 14-5 2-12-1-16 3-9 13 7 14 15 12 13-4 22-11 28-23 5-8 2-18 1-27v-7c6 1 12 8 17 10 6 3 12 3 17 3 12 0 23-6 33-12 6-4 19-15 6-20z"/><path d="M545 703h-1l-4 1 5-1zm-126 53c3 6-1 9-2 16-2 15-17 30-29 40-25 22-60 31-91 16-12-7-18-21-5-30 5-4 13-2 16 2 6 8 16 6 24 6 15 0 33-11 44-22 5-5 10-11 13-18 2-7 3-18 12-19 7-2 15 1 18 9z"/><path d="M401 747c-4 0 3-1 0 0zM231 611c1 9-5 19-8 27-3 11-6 22-11 32l-9-11-14-15c-6-6-27-21-27-30 0 4 23 1 0 0 23 1 46-4 69-3z"/><path d="M162 614c23 1 0 4 0 0z"/></svg>